<mxfile host="Electron" modified="2023-10-18T10:35:28.293Z" agent="Mozilla/5.0 (Windows NT 10.0; Win64; x64) AppleWebKit/537.36 (KHTML, like Gecko) draw.io/21.6.8 Chrome/114.0.5735.289 Electron/25.5.0 Safari/537.36" etag="rRZVIf0NrlAgl7Ge0kcb" version="21.6.8" type="device">
  <diagram name="Page-1" id="74e2e168-ea6b-b213-b513-2b3c1d86103e">
    <mxGraphModel dx="675" dy="454" grid="1" gridSize="10" guides="0" tooltips="1" connect="1" arrows="0" fold="1" page="1" pageScale="1" pageWidth="827" pageHeight="1169" background="none" math="0" shadow="0">
      <root>
        <mxCell id="0" />
        <mxCell id="1" parent="0" />
        <mxCell id="4oTWKZa-oMYPQXvp2SXr-9" value="&lt;font style=&quot;font-size: 18px;&quot;&gt;Начало&lt;br style=&quot;&quot;&gt;&lt;b style=&quot;&quot;&gt;hcl&lt;/b&gt;&lt;/font&gt;" style="strokeWidth=2;html=1;shape=mxgraph.flowchart.terminator;whiteSpace=wrap;rounded=1;strokeColor=default;fontFamily=Times New Roman;fontSize=14;fontColor=#000000;fillColor=none;labelBackgroundColor=none;labelBorderColor=none;" parent="1" vertex="1">
          <mxGeometry x="360" y="80" width="110" height="60" as="geometry" />
        </mxCell>
        <mxCell id="4oTWKZa-oMYPQXvp2SXr-14" value="&lt;font style=&quot;font-size: 14px;&quot;&gt;&lt;b&gt;length&amp;nbsp;&lt;/b&gt;= R *&amp;nbsp;&lt;/font&gt;π" style="rounded=0;whiteSpace=wrap;html=1;strokeColor=default;fontFamily=Times New Roman;fontSize=14;fontColor=#000000;fillColor=none;labelBackgroundColor=none;labelBorderColor=none;" parent="1" vertex="1">
          <mxGeometry x="360" y="170" width="110" height="30" as="geometry" />
        </mxCell>
        <mxCell id="iBWXFEtvxGumeE3fWOg8-2" value="&lt;font style=&quot;font-size: 18px;&quot;&gt;Конец&lt;br style=&quot;&quot;&gt;&lt;b style=&quot;&quot;&gt;hcl&lt;/b&gt;&lt;/font&gt;" style="strokeWidth=2;html=1;shape=mxgraph.flowchart.terminator;whiteSpace=wrap;rounded=1;strokeColor=default;fontFamily=Times New Roman;fontSize=14;fontColor=#000000;fillColor=none;labelBackgroundColor=none;labelBorderColor=none;" parent="1" vertex="1">
          <mxGeometry x="360" y="230" width="110" height="60" as="geometry" />
        </mxCell>
        <mxCell id="knSL9QU_Ydm_A3Gq9NfB-1" value="" style="endArrow=none;html=1;rounded=0;entryX=0.5;entryY=1;entryDx=0;entryDy=0;entryPerimeter=0;exitX=0.5;exitY=0;exitDx=0;exitDy=0;" edge="1" parent="1" source="4oTWKZa-oMYPQXvp2SXr-14" target="4oTWKZa-oMYPQXvp2SXr-9">
          <mxGeometry width="50" height="50" relative="1" as="geometry">
            <mxPoint x="390" y="260" as="sourcePoint" />
            <mxPoint x="500" y="130" as="targetPoint" />
          </mxGeometry>
        </mxCell>
        <mxCell id="knSL9QU_Ydm_A3Gq9NfB-2" value="" style="endArrow=none;html=1;rounded=0;entryX=0.5;entryY=1;entryDx=0;entryDy=0;exitX=0.5;exitY=0;exitDx=0;exitDy=0;" edge="1" parent="1" target="4oTWKZa-oMYPQXvp2SXr-14">
          <mxGeometry width="50" height="50" relative="1" as="geometry">
            <mxPoint x="415" y="230" as="sourcePoint" />
            <mxPoint x="420" y="200" as="targetPoint" />
          </mxGeometry>
        </mxCell>
        <mxCell id="knSL9QU_Ydm_A3Gq9NfB-4" value="" style="endArrow=none;dashed=1;html=1;rounded=0;entryX=1;entryY=0.5;entryDx=0;entryDy=0;entryPerimeter=0;" edge="1" parent="1" target="4oTWKZa-oMYPQXvp2SXr-9">
          <mxGeometry width="50" height="50" relative="1" as="geometry">
            <mxPoint x="520" y="110" as="sourcePoint" />
            <mxPoint x="440" y="150" as="targetPoint" />
          </mxGeometry>
        </mxCell>
        <mxCell id="knSL9QU_Ydm_A3Gq9NfB-5" value="" style="endArrow=none;html=1;rounded=0;" edge="1" parent="1">
          <mxGeometry width="50" height="50" relative="1" as="geometry">
            <mxPoint x="520" y="140" as="sourcePoint" />
            <mxPoint x="520" y="80" as="targetPoint" />
          </mxGeometry>
        </mxCell>
        <mxCell id="knSL9QU_Ydm_A3Gq9NfB-6" value="" style="endArrow=none;html=1;rounded=0;" edge="1" parent="1">
          <mxGeometry width="50" height="50" relative="1" as="geometry">
            <mxPoint x="530" y="80" as="sourcePoint" />
            <mxPoint x="520" y="80" as="targetPoint" />
          </mxGeometry>
        </mxCell>
        <mxCell id="knSL9QU_Ydm_A3Gq9NfB-7" value="" style="endArrow=none;html=1;rounded=0;" edge="1" parent="1">
          <mxGeometry width="50" height="50" relative="1" as="geometry">
            <mxPoint x="530" y="140" as="sourcePoint" />
            <mxPoint x="520" y="140" as="targetPoint" />
          </mxGeometry>
        </mxCell>
        <mxCell id="knSL9QU_Ydm_A3Gq9NfB-8" value="&lt;font style=&quot;font-size: 10px;&quot; face=&quot;Times New Roman&quot;&gt;Вычисление длинны дуги&lt;br&gt;Входные параметры: &lt;b&gt;R&lt;br&gt;&lt;/b&gt;Выходные параметры: &lt;b&gt;length&lt;/b&gt;&lt;br&gt;&lt;/font&gt;" style="text;html=1;strokeColor=none;fillColor=none;align=center;verticalAlign=middle;whiteSpace=wrap;rounded=0;" vertex="1" parent="1">
          <mxGeometry x="520" y="80" width="120" height="60" as="geometry" />
        </mxCell>
      </root>
    </mxGraphModel>
  </diagram>
</mxfile>
